<mxfile host="app.diagrams.net" modified="2022-11-24T03:43:53.051Z" agent="5.0 (Windows NT 10.0; Win64; x64) AppleWebKit/537.36 (KHTML, like Gecko) Chrome/107.0.0.0 Safari/537.36" etag="BdlgvV3QnWeMBpFD1dDu" version="20.6.0" type="github">
  <diagram id="2castmXTepqUeIz0JcBI" name="第 1 页">
    <mxGraphModel dx="1422" dy="794" grid="1" gridSize="10" guides="1" tooltips="1" connect="1" arrows="1" fold="1" page="1" pageScale="1" pageWidth="827" pageHeight="1169" math="0" shadow="0">
      <root>
        <mxCell id="0" />
        <mxCell id="1" parent="0" />
        <mxCell id="-uE4GjqY6HgeY-Bey6q8-8" style="edgeStyle=orthogonalEdgeStyle;rounded=0;orthogonalLoop=1;jettySize=auto;html=1;exitX=1;exitY=0.5;exitDx=0;exitDy=0;entryX=0;entryY=0.5;entryDx=0;entryDy=0;" parent="1" source="-uE4GjqY6HgeY-Bey6q8-2" target="-uE4GjqY6HgeY-Bey6q8-9" edge="1">
          <mxGeometry relative="1" as="geometry">
            <mxPoint x="250" y="150" as="targetPoint" />
          </mxGeometry>
        </mxCell>
        <mxCell id="-uE4GjqY6HgeY-Bey6q8-2" value="過帳" style="rounded=0;whiteSpace=wrap;html=1;" parent="1" vertex="1">
          <mxGeometry x="60" y="120" width="120" height="60" as="geometry" />
        </mxCell>
        <mxCell id="-uE4GjqY6HgeY-Bey6q8-3" value="UI" style="rounded=1;whiteSpace=wrap;html=1;" parent="1" vertex="1">
          <mxGeometry x="60" y="20" width="120" height="60" as="geometry" />
        </mxCell>
        <mxCell id="-uE4GjqY6HgeY-Bey6q8-4" value="API:&lt;br&gt;CostImportController" style="rounded=1;whiteSpace=wrap;html=1;" parent="1" vertex="1">
          <mxGeometry x="385" y="20" width="120" height="60" as="geometry" />
        </mxCell>
        <mxCell id="-uE4GjqY6HgeY-Bey6q8-5" value="" style="endArrow=none;html=1;rounded=0;" parent="1" edge="1">
          <mxGeometry width="50" height="50" relative="1" as="geometry">
            <mxPoint x="60" y="100" as="sourcePoint" />
            <mxPoint x="800" y="100" as="targetPoint" />
          </mxGeometry>
        </mxCell>
        <mxCell id="YaDZOWIKW5DbXvjn7WoJ-1" style="edgeStyle=orthogonalEdgeStyle;rounded=0;orthogonalLoop=1;jettySize=auto;html=1;exitX=0.5;exitY=1;exitDx=0;exitDy=0;entryX=0.5;entryY=0;entryDx=0;entryDy=0;fontSize=10;" edge="1" parent="1" source="-uE4GjqY6HgeY-Bey6q8-9" target="-uE4GjqY6HgeY-Bey6q8-11">
          <mxGeometry relative="1" as="geometry" />
        </mxCell>
        <mxCell id="-uE4GjqY6HgeY-Bey6q8-9" value="以入帳年月取得傳票資料" style="rounded=0;whiteSpace=wrap;html=1;" parent="1" vertex="1">
          <mxGeometry x="385" y="120" width="120" height="60" as="geometry" />
        </mxCell>
        <mxCell id="-uE4GjqY6HgeY-Bey6q8-10" value="&lt;p style=&quot;margin: 0in; font-size: 10px;&quot;&gt;&lt;font style=&quot;font-size: 10px;&quot;&gt;&lt;span style=&quot;font-family: Calibri; font-size: 10px;&quot;&gt;a1.&lt;/span&gt;&lt;span style=&quot;font-family: &amp;quot;Microsoft JhengHei&amp;quot;; font-size: 10px;&quot;&gt;越南&lt;/span&gt;:&lt;span style=&quot;font-family: &amp;quot;Microsoft JhengHei&amp;quot;; font-size: 10px;&quot;&gt;會計科目&lt;/span&gt;&lt;span style=&quot;font-family: Calibri; font-size: 10px;&quot;&gt; &amp;gt;=620000 &amp;amp; &amp;lt;=639999 or&amp;nbsp; &lt;/span&gt;&lt;span style=&quot;font-family: &amp;quot;Microsoft JhengHei&amp;quot;; font-size: 10px;&quot;&gt;會計科目&lt;/span&gt;&lt;span style=&quot;font-family: Calibri; font-size: 10px;&quot;&gt; =121091 &amp;amp; &lt;/span&gt;相關號碼&lt;span style=&quot;font-family: Calibri; font-size: 10px;&quot;&gt;=F118000&lt;br style=&quot;font-size: 10px;&quot;&gt;&amp;amp; &lt;/span&gt;&lt;span style=&quot;font-family: &amp;quot;Microsoft JhengHei&amp;quot;; font-size: 10px;&quot;&gt;歸屬代號&lt;/span&gt;&lt;span style=&quot;font-family: Calibri; font-size: 10px;&quot;&gt; &amp;lt;&amp;gt; &quot; &quot; &lt;/span&gt;&lt;/font&gt;&lt;/p&gt;&lt;p style=&quot;margin: 0in; font-size: 10px;&quot;&gt;&lt;font style=&quot;font-size: 10px;&quot;&gt;&lt;span style=&quot;font-family: Calibri; font-size: 10px;&quot;&gt;a2.IF &lt;/span&gt;&lt;span style=&quot;font-family: &amp;quot;Microsoft JhengHei&amp;quot;; font-size: 10px;&quot;&gt;會計科目&lt;/span&gt; &amp;lt;&amp;gt; 121091 &lt;span style=&quot;font-family: &amp;quot;Microsoft JhengHei&amp;quot;; font-size: 10px;&quot;&gt;則成本歸屬檔&lt;br style=&quot;font-size: 10px;&quot;&gt;來源系統欄 除了台中外 需等於&lt;/span&gt;&lt;span style=&quot;font-family: Calibri; font-size: 10px;&quot;&gt;&amp;nbsp; AC&lt;/span&gt;&lt;/font&gt;&lt;/p&gt;" style="text;html=1;strokeColor=none;fillColor=none;align=left;verticalAlign=middle;whiteSpace=wrap;rounded=0;" parent="1" vertex="1">
          <mxGeometry x="540" y="105" width="474" height="90" as="geometry" />
        </mxCell>
        <mxCell id="YaDZOWIKW5DbXvjn7WoJ-2" style="edgeStyle=orthogonalEdgeStyle;rounded=0;orthogonalLoop=1;jettySize=auto;html=1;exitX=0.5;exitY=1;exitDx=0;exitDy=0;entryX=0.5;entryY=0;entryDx=0;entryDy=0;fontSize=10;" edge="1" parent="1" source="-uE4GjqY6HgeY-Bey6q8-11" target="-uE4GjqY6HgeY-Bey6q8-19">
          <mxGeometry relative="1" as="geometry" />
        </mxCell>
        <mxCell id="-uE4GjqY6HgeY-Bey6q8-11" value="彙總數量、金額" style="rounded=0;whiteSpace=wrap;html=1;" parent="1" vertex="1">
          <mxGeometry x="385" y="220" width="120" height="60" as="geometry" />
        </mxCell>
        <mxCell id="-uE4GjqY6HgeY-Bey6q8-12" value="&lt;span style=&quot;font-family:&amp;quot;Microsoft JhengHei&amp;quot;&quot;&gt;所屬廠別&lt;/span&gt;&lt;span style=&quot;font-family:&lt;br/&gt;Calibri&quot;&gt;+&lt;/span&gt;&lt;span style=&quot;font-family:&amp;quot;Microsoft JhengHei&amp;quot;&quot;&gt;部門&lt;/span&gt;&lt;span style=&quot;font-family:Calibri&quot;&gt;+&lt;/span&gt;&lt;span style=&quot;font-family:&amp;quot;Microsoft JhengHei&amp;quot;&quot;&gt;會計科目&lt;/span&gt;&lt;span style=&quot;font-family:Calibri&quot;&gt;+&lt;/span&gt;&lt;span style=&quot;font-family:&amp;quot;Microsoft JhengHei&amp;quot;&quot;&gt;歸屬代號&lt;/span&gt;&lt;span style=&quot;font-family:Calibri&quot;&gt;+&lt;/span&gt;&lt;span style=&quot;font-family:&amp;quot;Microsoft JhengHei&amp;quot;&quot;&gt;摘要三&lt;/span&gt;&lt;span style=&quot;font-family:Calibri&quot;&gt; +(&lt;/span&gt;&lt;span style=&quot;font-family:&amp;quot;Microsoft JhengHei&amp;quot;&quot;&gt;產品單元&lt;/span&gt;&lt;span style=&quot;font-family:Calibri&quot;&gt;)&lt;/span&gt;" style="text;html=1;strokeColor=none;fillColor=none;align=center;verticalAlign=middle;whiteSpace=wrap;rounded=0;" parent="1" vertex="1">
          <mxGeometry x="495" y="210" width="386" height="30" as="geometry" />
        </mxCell>
        <mxCell id="-uE4GjqY6HgeY-Bey6q8-32" style="edgeStyle=orthogonalEdgeStyle;rounded=0;orthogonalLoop=1;jettySize=auto;html=1;exitX=0.5;exitY=1;exitDx=0;exitDy=0;entryX=0.5;entryY=0;entryDx=0;entryDy=0;fontSize=10;" parent="1" source="-uE4GjqY6HgeY-Bey6q8-19" target="-uE4GjqY6HgeY-Bey6q8-20" edge="1">
          <mxGeometry relative="1" as="geometry" />
        </mxCell>
        <mxCell id="-uE4GjqY6HgeY-Bey6q8-34" style="edgeStyle=orthogonalEdgeStyle;rounded=0;orthogonalLoop=1;jettySize=auto;html=1;exitX=0;exitY=0.5;exitDx=0;exitDy=0;entryX=0;entryY=0.5;entryDx=0;entryDy=0;fontSize=10;" parent="1" source="-uE4GjqY6HgeY-Bey6q8-19" target="-uE4GjqY6HgeY-Bey6q8-23" edge="1">
          <mxGeometry relative="1" as="geometry">
            <Array as="points">
              <mxPoint x="320" y="370" />
              <mxPoint x="320" y="620" />
            </Array>
          </mxGeometry>
        </mxCell>
        <mxCell id="-uE4GjqY6HgeY-Bey6q8-19" value="&lt;span style=&quot;font-size: 10px;&quot;&gt;會計科目 =121091&lt;/span&gt;" style="rhombus;whiteSpace=wrap;html=1;fontSize=10;" parent="1" vertex="1">
          <mxGeometry x="405" y="330" width="80" height="80" as="geometry" />
        </mxCell>
        <mxCell id="-uE4GjqY6HgeY-Bey6q8-39" style="edgeStyle=orthogonalEdgeStyle;rounded=0;orthogonalLoop=1;jettySize=auto;html=1;exitX=0.5;exitY=1;exitDx=0;exitDy=0;entryX=0.467;entryY=0;entryDx=0;entryDy=0;entryPerimeter=0;fontSize=10;" parent="1" source="-uE4GjqY6HgeY-Bey6q8-20" target="-uE4GjqY6HgeY-Bey6q8-23" edge="1">
          <mxGeometry relative="1" as="geometry" />
        </mxCell>
        <mxCell id="-uE4GjqY6HgeY-Bey6q8-20" value="&lt;span style=&quot;font-size: 10px;&quot;&gt;&amp;nbsp;檢查 會計科目 是否有等於 成本歸屬 會計科目1,2,3&lt;/span&gt;" style="rounded=0;whiteSpace=wrap;html=1;fontSize=10;" parent="1" vertex="1">
          <mxGeometry x="350" y="460" width="190" height="60" as="geometry" />
        </mxCell>
        <mxCell id="-uE4GjqY6HgeY-Bey6q8-22" value="No" style="text;html=1;strokeColor=none;fillColor=none;align=center;verticalAlign=middle;whiteSpace=wrap;rounded=0;fontSize=10;" parent="1" vertex="1">
          <mxGeometry x="435" y="420" width="60" height="30" as="geometry" />
        </mxCell>
        <mxCell id="-uE4GjqY6HgeY-Bey6q8-40" style="edgeStyle=orthogonalEdgeStyle;rounded=0;orthogonalLoop=1;jettySize=auto;html=1;exitX=1;exitY=0.5;exitDx=0;exitDy=0;entryX=0.5;entryY=0;entryDx=0;entryDy=0;fontSize=10;" parent="1" source="-uE4GjqY6HgeY-Bey6q8-23" target="-uE4GjqY6HgeY-Bey6q8-26" edge="1">
          <mxGeometry relative="1" as="geometry">
            <Array as="points">
              <mxPoint x="540" y="695" />
              <mxPoint x="445" y="695" />
            </Array>
          </mxGeometry>
        </mxCell>
        <mxCell id="-uE4GjqY6HgeY-Bey6q8-41" style="edgeStyle=orthogonalEdgeStyle;rounded=0;orthogonalLoop=1;jettySize=auto;html=1;exitX=0.5;exitY=1;exitDx=0;exitDy=0;entryX=0.5;entryY=0;entryDx=0;entryDy=0;fontSize=10;" parent="1" source="-uE4GjqY6HgeY-Bey6q8-23" target="-uE4GjqY6HgeY-Bey6q8-28" edge="1">
          <mxGeometry relative="1" as="geometry">
            <Array as="points">
              <mxPoint x="220" y="670" />
            </Array>
          </mxGeometry>
        </mxCell>
        <mxCell id="-uE4GjqY6HgeY-Bey6q8-23" value="&lt;span style=&quot;font-size: 10px;&quot;&gt;成本歸屬是否in成本歸屬檔&lt;/span&gt;" style="rhombus;whiteSpace=wrap;html=1;fontSize=10;" parent="1" vertex="1">
          <mxGeometry x="360" y="570" width="180" height="100" as="geometry" />
        </mxCell>
        <mxCell id="-uE4GjqY6HgeY-Bey6q8-44" style="edgeStyle=orthogonalEdgeStyle;rounded=0;orthogonalLoop=1;jettySize=auto;html=1;entryX=0;entryY=0.5;entryDx=0;entryDy=0;fontSize=10;" parent="1" source="-uE4GjqY6HgeY-Bey6q8-24" target="-uE4GjqY6HgeY-Bey6q8-25" edge="1">
          <mxGeometry relative="1" as="geometry" />
        </mxCell>
        <mxCell id="-uE4GjqY6HgeY-Bey6q8-47" style="edgeStyle=orthogonalEdgeStyle;rounded=0;orthogonalLoop=1;jettySize=auto;html=1;exitX=0;exitY=0.5;exitDx=0;exitDy=0;entryX=1;entryY=0.5;entryDx=0;entryDy=0;fontSize=10;" parent="1" source="-uE4GjqY6HgeY-Bey6q8-24" target="-uE4GjqY6HgeY-Bey6q8-28" edge="1">
          <mxGeometry relative="1" as="geometry" />
        </mxCell>
        <mxCell id="-uE4GjqY6HgeY-Bey6q8-24" value="&lt;span style=&quot;font-size: 10px;&quot;&gt;&amp;nbsp;寫入成會異動檔&lt;/span&gt;" style="rounded=0;whiteSpace=wrap;html=1;fontSize=10;" parent="1" vertex="1">
          <mxGeometry x="385" y="830" width="120" height="60" as="geometry" />
        </mxCell>
        <mxCell id="-uE4GjqY6HgeY-Bey6q8-25" value="&lt;span style=&quot;font-size: 10px;&quot;&gt;產生excel報表&lt;/span&gt;" style="rounded=0;whiteSpace=wrap;html=1;fontSize=10;" parent="1" vertex="1">
          <mxGeometry x="690" y="830" width="120" height="60" as="geometry" />
        </mxCell>
        <mxCell id="-uE4GjqY6HgeY-Bey6q8-43" style="edgeStyle=orthogonalEdgeStyle;rounded=0;orthogonalLoop=1;jettySize=auto;html=1;exitX=0.5;exitY=1;exitDx=0;exitDy=0;entryX=0.425;entryY=-0.083;entryDx=0;entryDy=0;entryPerimeter=0;fontSize=10;" parent="1" source="-uE4GjqY6HgeY-Bey6q8-26" target="-uE4GjqY6HgeY-Bey6q8-24" edge="1">
          <mxGeometry relative="1" as="geometry" />
        </mxCell>
        <mxCell id="-uE4GjqY6HgeY-Bey6q8-26" value="&lt;span style=&quot;font-size: 10px;&quot;&gt;檢核 成會系統控制檔 總帳是否已經資料確認&lt;/span&gt;" style="rhombus;whiteSpace=wrap;html=1;fontSize=10;" parent="1" vertex="1">
          <mxGeometry x="300" y="720" width="290" height="80" as="geometry" />
        </mxCell>
        <mxCell id="-uE4GjqY6HgeY-Bey6q8-27" value="提示成功or錯誤訊息" style="rounded=0;whiteSpace=wrap;html=1;fontSize=10;" parent="1" vertex="1">
          <mxGeometry x="40" y="1020" width="120" height="60" as="geometry" />
        </mxCell>
        <mxCell id="-uE4GjqY6HgeY-Bey6q8-48" style="edgeStyle=orthogonalEdgeStyle;rounded=0;orthogonalLoop=1;jettySize=auto;html=1;exitX=0.5;exitY=1;exitDx=0;exitDy=0;entryX=0.5;entryY=0;entryDx=0;entryDy=0;fontSize=10;" parent="1" source="-uE4GjqY6HgeY-Bey6q8-28" target="-uE4GjqY6HgeY-Bey6q8-27" edge="1">
          <mxGeometry relative="1" as="geometry" />
        </mxCell>
        <mxCell id="-uE4GjqY6HgeY-Bey6q8-28" value="寫一筆過帳紀錄" style="rounded=0;whiteSpace=wrap;html=1;fontSize=10;" parent="1" vertex="1">
          <mxGeometry x="160" y="830" width="120" height="60" as="geometry" />
        </mxCell>
        <mxCell id="-uE4GjqY6HgeY-Bey6q8-30" value="&lt;p style=&quot;font-size: 8px; margin: 0in;&quot;&gt;&lt;span style=&quot;background-color: initial; font-family: Calibri;&quot;&gt;b1.ReverseCode=99&amp;nbsp;&amp;nbsp;&lt;/span&gt;&lt;span style=&quot;background-color: initial; font-family: &amp;quot;Microsoft JhengHei&amp;quot;;&quot;&gt;金額&lt;/span&gt;&lt;span style=&quot;background-color: initial; font-family: Calibri;&quot;&gt;/&lt;/span&gt;&lt;span style=&quot;background-color: initial; font-family: &amp;quot;Microsoft JhengHei&amp;quot;;&quot;&gt;數量&lt;/span&gt;&lt;span style=&quot;background-color: initial; font-family: Calibri;&quot;&gt;=*-1&lt;/span&gt;&lt;br&gt;&lt;/p&gt;&lt;span style=&quot;font-size: 8px; background-color: initial; font-family: Calibri;&quot;&gt;b2.if&amp;nbsp;&lt;/span&gt;&lt;span style=&quot;font-size: 8px; background-color: initial; font-family: &amp;quot;Microsoft JhengHei&amp;quot;;&quot;&gt;貸方&lt;/span&gt;&lt;span style=&quot;font-size: 8px; background-color: initial; font-family: Calibri;&quot;&gt;&amp;nbsp;&amp;nbsp;&amp;nbsp;&lt;/span&gt;&lt;span style=&quot;font-size: 8px; background-color: initial; font-family: &amp;quot;Microsoft JhengHei&amp;quot;;&quot;&gt;金額&lt;/span&gt;&lt;span style=&quot;font-size: 8px; background-color: initial; font-family: Calibri;&quot;&gt;/&lt;/span&gt;&lt;span style=&quot;font-size: 8px; background-color: initial; font-family: &amp;quot;Microsoft JhengHei&amp;quot;;&quot;&gt;數量&lt;/span&gt;&lt;span style=&quot;font-size: 8px; background-color: initial; font-family: Calibri;&quot;&gt;=*-1&lt;/span&gt;&lt;br style=&quot;font-size: 12px;&quot;&gt;&lt;span style=&quot;font-size: 8px; background-color: initial; font-family: Calibri;&quot;&gt;b3.&lt;/span&gt;&lt;span style=&quot;font-size: 8px; background-color: initial; font-family: &amp;quot;Microsoft JhengHei&amp;quot;;&quot;&gt;以數量欄位累加&lt;/span&gt;&lt;span style=&quot;font-size: 8px; background-color: initial; font-family: Calibri;&quot;&gt;(as400&lt;/span&gt;&lt;span style=&quot;font-size: 8px; background-color: initial; font-family: &amp;quot;Microsoft JhengHei&amp;quot;;&quot;&gt;是摘要二放數量&lt;/span&gt;&lt;span style=&quot;font-size: 8px; background-color: initial; font-family: Calibri;&quot;&gt;&amp;nbsp;(&lt;/span&gt;&lt;span style=&quot;font-size: 8px; background-color: initial; font-family: &amp;quot;Microsoft JhengHei&amp;quot;;&quot;&gt;非空白時&lt;/span&gt;&lt;span style=&quot;font-size: 8px; background-color: initial; font-family: Calibri;&quot;&gt;))&lt;/span&gt;&lt;br style=&quot;font-size: 12px;&quot;&gt;&lt;span style=&quot;font-size: 8px; background-color: initial; font-family: Calibri;&quot;&gt;b4.&lt;/span&gt;&lt;span style=&quot;font-size: 8px; background-color: initial; font-family: &amp;quot;Microsoft JhengHei&amp;quot;;&quot;&gt;會計科目&lt;/span&gt;&lt;span style=&quot;font-size: 8px; background-color: initial; font-family: Calibri;&quot;&gt;=630102,630103,630504,121091&lt;/span&gt;&lt;span style=&quot;font-size: 8px; background-color: initial; font-family: &amp;quot;Microsoft JhengHei&amp;quot;;&quot;&gt;時&lt;/span&gt;&lt;span style=&quot;font-size: 8px; background-color: initial; font-family: Calibri;&quot;&gt;,&lt;/span&gt;&lt;span style=&quot;font-size: 8px; background-color: initial; font-family: &amp;quot;Microsoft JhengHei&amp;quot;;&quot;&gt;才需要把數量合計寫入&lt;/span&gt;&lt;span style=&quot;font-size: 8px; background-color: initial; font-family: &amp;quot;Microsoft JhengHei&amp;quot;;&quot;&gt;異動檔 數量欄&lt;br&gt;&lt;/span&gt;&lt;p style=&quot;margin: 0in;&quot;&gt;&lt;span style=&quot;font-family: Calibri;&quot;&gt;c.&lt;/span&gt;&lt;span style=&quot;font-family: &amp;quot;Microsoft JhengHei&amp;quot;;&quot;&gt;成會異動檔 部門&lt;/span&gt;=&lt;span style=&quot;font-family: &amp;quot;Microsoft JhengHei&amp;quot;;&quot;&gt;傳票檔部門&lt;/span&gt;&lt;span style=&quot;font-family: Calibri;&quot;&gt;&amp;nbsp;&lt;/span&gt;&lt;/p&gt;&lt;p style=&quot;margin: 0in;&quot;&gt;&lt;span style=&quot;font-family: Calibri;&quot;&gt;&lt;/span&gt;&lt;span style=&quot;font-family: &amp;quot;Microsoft JhengHei&amp;quot;;&quot;&gt;如果當會計科目&lt;/span&gt;=121091 &amp;amp; (&lt;span style=&quot;font-family: &amp;quot;Microsoft JhengHei&amp;quot;;&quot;&gt;相關號碼&lt;/span&gt;&lt;span style=&quot;font-family: Calibri;&quot;&gt;=F116888&amp;nbsp; or F116999 or&amp;nbsp;&amp;nbsp; F118000)&amp;nbsp;&lt;/span&gt;&lt;span style=&quot;font-family: &amp;quot;Microsoft JhengHei&amp;quot;;&quot;&gt;則&lt;/span&gt;&lt;span style=&quot;font-family: Calibri;&quot;&gt;=F300&lt;br&gt;&lt;/span&gt;&lt;/p&gt;&lt;p style=&quot;margin: 0in;&quot;&gt;&lt;span style=&quot;font-family: Calibri;&quot;&gt;d.&lt;/span&gt;序號欄 由&lt;span style=&quot;font-family: Calibri;&quot;&gt;20001&lt;/span&gt;&lt;span style=&quot;font-family: &amp;quot;Microsoft JhengHei&amp;quot;;&quot;&gt;起算&lt;/span&gt;&lt;/p&gt;" style="shape=document;whiteSpace=wrap;html=1;boundedLbl=1;fontSize=10;align=left;" parent="1" vertex="1">
          <mxGeometry x="565" y="240" width="320" height="200" as="geometry" />
        </mxCell>
        <mxCell id="-uE4GjqY6HgeY-Bey6q8-35" value="Yes" style="text;html=1;strokeColor=none;fillColor=none;align=center;verticalAlign=middle;whiteSpace=wrap;rounded=0;fontSize=10;" parent="1" vertex="1">
          <mxGeometry x="540" y="650" width="60" height="30" as="geometry" />
        </mxCell>
        <mxCell id="-uE4GjqY6HgeY-Bey6q8-36" value="Yes" style="text;html=1;strokeColor=none;fillColor=none;align=center;verticalAlign=middle;whiteSpace=wrap;rounded=0;fontSize=10;" parent="1" vertex="1">
          <mxGeometry x="310" y="340" width="60" height="30" as="geometry" />
        </mxCell>
        <mxCell id="-uE4GjqY6HgeY-Bey6q8-42" value="No" style="text;html=1;strokeColor=none;fillColor=none;align=center;verticalAlign=middle;whiteSpace=wrap;rounded=0;fontSize=10;" parent="1" vertex="1">
          <mxGeometry x="280" y="670" width="60" height="30" as="geometry" />
        </mxCell>
      </root>
    </mxGraphModel>
  </diagram>
</mxfile>
